<?xml version="1.0" standalone="no"?>
<!DOCTYPE svg PUBLIC "-//W3C//DTD SVG 20010904//EN"
 "http://www.w3.org/TR/2001/REC-SVG-20010904/DTD/svg10.dtd">
<svg version="1.0" xmlns="http://www.w3.org/2000/svg"
 width="31.88" height="32" viewBox="0 0 256 257"
 preserveAspectRatio="xMidYMid meet">

<g transform="translate(0.000000,500.000000) scale(0.100000,-0.100000)"
fill="#000000" stroke="none">
<path d="M0 2500 l0 -2500 2500 0 2500 0 0 2500 0 2500 -2500 0 -2500 0 0
-2500z m2886 1969 c63 -24 120 -75 149 -134 29 -59 28 -212 -2 -276 -52 -115
-144 -164 -292 -157 -134 6 -230 60 -278 157 -28 57 -25 210 6 278 24 55 83
116 129 135 81 33 195 31 288 -3z m-902 -46 c3 -10 24 -103 46 -208 23 -104
43 -191 46 -194 2 -3 53 5 112 17 59 12 112 22 117 22 10 0 40 -118 33 -126
-8 -7 -398 -87 -403 -82 -5 5 -110 480 -117 527 -3 23 2 26 72 42 41 9 78 17
82 18 4 0 9 -7 12 -16z m1567 -169 c107 -31 203 -100 244 -176 23 -42 27 -59
23 -104 -3 -30 -8 -57 -12 -61 -4 -4 -40 11 -81 32 -63 34 -75 44 -75 65 0 54
-74 110 -144 110 -97 0 -196 -189 -140 -268 21 -30 86 -62 126 -62 33 0 78 23
78 40 0 5 -31 26 -69 47 l-69 37 19 38 c10 20 23 40 29 43 6 4 73 -28 150 -70
l140 -77 -37 -66 c-68 -124 -115 -207 -118 -211 -2 -1 -31 12 -64 30 l-59 33
19 38 c11 21 18 38 16 38 -2 0 -19 -7 -36 -16 -40 -20 -103 -14 -164 17 -143
72 -190 212 -121 360 77 164 196 227 345 183z m-1971 -9 c37 -19 70 -74 70
-117 0 -20 -10 -50 -23 -70 l-24 -34 51 4 c45 4 56 1 83 -22 41 -34 68 -103
59 -151 -11 -54 -63 -98 -241 -201 -88 -51 -160 -92 -161 -91 -4 5 -262 454
-272 473 -11 20 -2 27 146 112 87 50 169 95 182 101 37 15 97 13 130 -4z
m1409 -898 c156 -42 260 -116 313 -225 32 -64 33 -71 33 -187 0 -112 -2 -123
-28 -173 -33 -63 -42 -64 -22 -4 36 103 27 238 -22 339 -55 112 -192 203 -358
239 -68 15 -160 19 -620 24 l-540 7 590 -2 c521 -1 597 -3 654 -18z m-91 -63
c164 -33 288 -123 331 -239 25 -65 31 -200 12 -263 -36 -119 -146 -218 -291
-262 -50 -15 -55 -19 -58 -48 -2 -18 0 -32 5 -32 27 -1 154 -32 188 -47 130
-55 185 -122 206 -250 30 -184 -40 -337 -188 -412 -134 -67 -108 -65 -760 -69
l-593 -3 0 145 0 145 38 3 c34 3 37 6 40 36 2 20 9 32 18 32 12 0 14 71 14
495 l0 495 -55 0 -55 0 0 145 0 145 535 0 c449 0 548 -3 613 -16z m224 -815
c116 -39 201 -107 234 -185 24 -57 35 -179 23 -252 -11 -72 -43 -154 -67 -174
-13 -12 -13 -10 0 17 27 51 41 150 35 234 -8 104 -39 184 -92 237 -43 42 -162
106 -223 119 -18 4 -30 11 -26 16 9 15 50 10 116 -12z m364 -1334 c5 -30 4
-31 -66 -55 -40 -14 -74 -28 -76 -31 -2 -3 2 -14 9 -23 11 -16 17 -15 78 8
l66 25 12 -25 c6 -14 11 -29 11 -34 0 -4 -29 -19 -65 -32 -47 -16 -65 -28 -65
-41 0 -29 23 -29 95 -2 37 14 69 25 70 25 8 0 24 -65 18 -71 -16 -14 -228 -87
-235 -81 -13 14 -110 284 -103 290 14 14 230 90 237 83 4 -4 10 -20 14 -36z
m-1723 4 c69 -19 136 -101 113 -138 -9 -14 -96 18 -96 35 0 19 -46 48 -65 40
-32 -12 -16 -42 36 -66 84 -40 107 -86 73 -151 -22 -43 -68 -60 -124 -48 -91
20 -150 75 -150 138 0 39 81 14 97 -30 11 -29 50 -46 79 -35 28 11 10 40 -41
68 -63 34 -85 61 -85 105 0 25 8 43 29 64 32 32 68 37 134 18z m394 -113 c68
-12 126 -25 129 -29 3 -3 3 -20 -1 -37 -7 -31 -7 -32 -55 -25 -56 8 -51 15
-75 -124 l-18 -103 -45 6 c-25 3 -47 7 -49 9 -1 2 7 52 18 111 11 60 18 115
15 122 -3 8 -16 14 -30 14 -51 0 -67 20 -50 64 8 20 14 20 161 -8z m958 -11
c31 -30 33 -82 4 -119 -15 -19 -17 -26 -6 -26 22 0 44 -31 57 -79 6 -23 10
-44 8 -46 -2 -2 -24 -6 -49 -10 l-46 -7 -12 46 c-11 45 -12 46 -49 46 -21 0
-41 -2 -44 -5 -3 -3 -1 -27 3 -52 5 -26 6 -50 2 -54 -5 -4 -26 -9 -48 -11
l-40 -3 -27 140 c-15 77 -27 147 -28 156 0 12 20 20 83 31 127 24 164 22 192
-7z m-495 -25 c20 -5 51 -25 69 -44 27 -28 35 -45 39 -85 10 -109 -29 -171
-121 -191 -127 -27 -218 37 -219 153 -1 131 100 204 232 167z"/>
<path d="M2691 4347 c-39 -20 -61 -59 -72 -128 -19 -123 24 -179 137 -179 90
0 124 51 124 182 0 81 -20 111 -84 127 -57 14 -75 14 -105 -2z"/>
<path d="M1383 4068 c-29 -16 -53 -35 -53 -41 0 -16 38 -77 47 -77 5 1 33 16
63 34 60 35 75 69 45 100 -23 22 -42 20 -102 -16z"/>
<path d="M1525 3908 c-11 -6 -37 -22 -58 -35 l-37 -23 20 -40 c11 -21 23 -41
28 -44 13 -8 131 66 138 87 3 10 -2 29 -10 42 -18 27 -48 32 -81 13z"/>
<path d="M2438 3003 l-48 -4 0 -210 0 -209 85 0 c105 0 157 19 191 69 13 20
31 47 41 60 13 18 17 45 17 121 0 170 -38 192 -286 173z m42 -208 l0 -144 58
-4 c51 -3 49 -3 -20 -5 l-78 -2 0 150 c0 143 1 150 20 150 19 0 20 -7 20 -145z"/>
<path d="M2480 2390 c0 -5 -20 -10 -45 -10 l-45 0 0 -215 0 -215 75 0 c125 0
168 14 214 69 54 64 61 87 61 193 0 108 -17 154 -66 174 -39 16 -194 19 -194
4z m0 -215 l0 -154 63 -4 c57 -3 56 -3 -20 -5 l-83 -2 0 160 c0 153 1 160 20
160 19 0 20 -7 20 -155z"/>
<path d="M2963 953 c-14 -5 -17 -41 -5 -60 6 -9 17 -10 45 -2 42 11 51 21 42
49 -5 15 -15 20 -38 19 -18 0 -38 -3 -44 -6z"/>
<path d="M2510 902 c-18 -15 -22 -28 -22 -72 0 -44 4 -57 22 -72 27 -22 68
-23 98 -2 18 13 22 25 22 74 0 49 -4 61 -22 74 -30 21 -71 20 -98 -2z"/>
</g>
</svg>
